<svg xmlns="http://www.w3.org/2000/svg" viewBox="0 0 268.61 293.86"><path d="M94.82,4.44h29.64v98.88q0,13.73-6.13,23.83a41,41,0,0,1-17,15.58q-10.87,5.46-25.28,5.47a57.69,57.69,0,0,1-23.23-4.54A36.87,36.87,0,0,1,36.3,129.81q-6.09-9.32-6-23.44H60.13A20.67,20.67,0,0,0,62.45,116a15,15,0,0,0,6,6.1,18.72,18.72,0,0,0,9.11,2.11A17.45,17.45,0,0,0,87,121.78a15,15,0,0,0,5.85-7,28.74,28.74,0,0,0,2-11.43Z" transform="translate(-11.15 -4.44)" fill="#f7ebe6"/><path d="M173.62,146.26H141.49l49-141.82h38.64L278,146.26H245.84L210.32,36.85h-1.11Zm-2-55.75h75.9v23.41h-75.9Z" transform="translate(-11.15 -4.44)" fill="#f7ebe6"/><path d="M138.77,204.19H108.44a30.11,30.11,0,0,0-3.39-10.49,26.75,26.75,0,0,0-6.58-7.86,29.14,29.14,0,0,0-9.25-5,35.91,35.91,0,0,0-11.32-1.73,33.78,33.78,0,0,0-19.18,5.44Q50.55,190,46.05,200.35t-4.5,25.1q0,15.17,4.53,25.48t12.71,15.58a34.14,34.14,0,0,0,18.9,5.27,37.5,37.5,0,0,0,11.19-1.6,28.88,28.88,0,0,0,9.17-4.67,26.91,26.91,0,0,0,6.69-7.51,30,30,0,0,0,3.7-10.12l30.33.14a55,55,0,0,1-5.85,18.8A56.8,56.8,0,0,1,120.38,283a58.67,58.67,0,0,1-18.69,11.22,68.68,68.68,0,0,1-24.48,4.12q-19,0-33.9-8.59a60.62,60.62,0,0,1-23.54-24.86q-8.62-16.28-8.62-39.4T19.87,186a61,61,0,0,1,23.69-24.83,66.59,66.59,0,0,1,33.65-8.55,73,73,0,0,1,22.89,3.46,58.52,58.52,0,0,1,18.73,10.08,53,53,0,0,1,13.33,16.17A60.53,60.53,0,0,1,138.77,204.19Z" transform="translate(-11.15 -4.44)" fill="#f7ebe6"/><path d="M160.3,296.36V154.54h30v62.53h1.87l51-62.53h35.94L226.5,218l53.26,78.32H243.89L205,238.05l-14.75,18v40.3Z" transform="translate(-11.15 -4.44)" fill="#f7ebe6"/></svg>